<svg xmlns="http://www.w3.org/2000/svg" viewBox="0 0 200 160" fill="none">
  
  <path d="M40 110 C 50 80, 80 55, 120 50 C 135 49, 150 53, 158 60 C 162 64, 162 70, 158 72 C 152 74, 148 71, 144 70 C 152 75, 158 82, 160 92 C 162 100, 158 106, 152 105 C 148 104, 145 100, 142 96 C 145 105, 144 115, 138 119 C 132 122, 126 118, 124 112 C 122 116, 118 120, 112 122 C 100 126, 90 122, 86 116 C 82 112, 78 116, 74 120 C 64 130, 50 128, 44 122 C 38 117, 36 112, 40 110 Z" fill="currentColor"></path>
  
  <circle cx="146" cy="68" r="2" fill="#FFF7EB"></circle>
</svg>